# xmcd
#
# Track frame offsets:
#	150
#	17388
#	24945
#	34371
#	47924
#	64976
#	78988
#	101996
#	122421
#	134640
#	149640
#	164675
#	183357
#	201434
#	216104
#
# Disc length: 2992 seconds
#
# Revision: 1
# Processed by: cddbd v1.5.1PL0 Copyright (c) Steve Scherf et al.
# Submitted via: CDex 1.50Beta5
#
DISCID=e20bae0f
DTITLE=大江戸宅急便 - Plume Mc Version -Peacefulness-
DYEAR=1900
DGENRE=
TTITLE0=アンダースカイ
TTITLE1=雪の少女
TTITLE2=folklore〜Always we'll be with PXXX!〜
TTITLE3=彼女たちの見解
TTITLE4=電燈虫
TTITLE5=オンユアマーク
TTITLE6=ENIHI
TTITLE7=夢の探求
TTITLE8=moon kNight
TTITLE9=TEARS DIVINATION
TTITLE10=秋の訪れ
TTITLE11=雪の街道
TTITLE12=彼女たちの見解(slow arrange)
TTITLE13=平穏な夕暮れ
TTITLE14=木々の声と日々のざわめき
EXTD=
EXTT0=
EXTT1=
EXTT2=
EXTT3=
EXTT4=
EXTT5=
EXTT6=
EXTT7=
EXTT8=
EXTT9=
EXTT10=
EXTT11=
EXTT12=
EXTT13=
EXTT14=
PLAYORDER=
